HIERARCHY
ROOT Hips
{
	OFFSET 0.00 0.00 0.00
	CHANNELS 6 Xposition Yposition Zposition Xrotation Yrotation Zrotation
	JOINT Spine
	{
		OFFSET 0.00000 2.10617 3.15926
		CHANNELS 3 Xrotation Yrotation Zrotation
		JOINT Spine1
		{
			OFFSET 0.00000 0.73147 4.14835
			CHANNELS 3 Xrotation Yrotation Zrotation
			JOINT Spine2
			{
				OFFSET 0.00000 0.36713 4.19631
				CHANNELS 3 Xrotation Yrotation Zrotation
				JOINT Spine3
				{
					OFFSET 0.00000 0.00000 4.21234
					CHANNELS 3 Xrotation Yrotation Zrotation
					JOINT Neck
					{
						OFFSET 0.00000 -1.57962 11.05740
						CHANNELS 3 Xrotation Yrotation Zrotation
						JOINT Head
						{
							OFFSET 0.00000 -1.00576 5.70398
							CHANNELS 3 Xrotation Yrotation Zrotation
							End Site
							{
								OFFSET 0.00000 0.00001 6.81873
							}
						}
					}
					JOINT RightShoulder
					{
						OFFSET -1.28113 -2.13521 6.91810
						CHANNELS 3 Xrotation Yrotation Zrotation
						JOINT RightArm
						{
							OFFSET -6.36294 0.00000 0.00000
							CHANNELS 3 Xrotation Yrotation Zrotation
							JOINT RightForeArm
							{
								OFFSET -10.12221 0.00000 0.00000
								CHANNELS 3 Xrotation Yrotation Zrotation
								JOINT RightHand
								{
									OFFSET -10.76713 0.00000 0.00000
									CHANNELS 3 Xrotation Yrotation Zrotation
									JOINT RightHandEnd
									{
										OFFSET -2.78915 0.00000 0.00000
										CHANNELS 3 Xrotation Yrotation Zrotation
										End Site
										{
											OFFSET -2.78915 0.00000 0.00000
										}
									}
									JOINT RightHandThumb1
									{
										OFFSET -1.11566 -1.85944 -0.74377
										CHANNELS 3 Yrotation Xrotation Zrotation
										End Site
										{
											OFFSET -2.69412 -0.72189 0.00000
										}
									}
								}
							}
						}
					}
					JOINT LeftShoulder
					{
						OFFSET 1.28113 -2.13521 6.91810
						CHANNELS 3 Xrotation Yrotation Zrotation
						JOINT LeftArm
						{
							OFFSET 6.36294 0.00000 0.00000
							CHANNELS 3 Xrotation Yrotation Zrotation
							JOINT LeftForeArm
							{
								OFFSET 10.12221 0.00000 0.00000
								CHANNELS 3 Xrotation Yrotation Zrotation
								JOINT LeftHand
								{
									OFFSET 10.76713 0.00000 0.00000
									CHANNELS 3 Xrotation Yrotation Zrotation
									JOINT LeftHandEnd
									{
										OFFSET 2.78915 0.00000 0.00000
										CHANNELS 3 Xrotation Yrotation Zrotation
										End Site
										{
											OFFSET 2.78915 0.00000 0.00000
										}
									}
									JOINT LeftHandThumb1
									{
										OFFSET 1.11566 -1.85944 -0.74377
										CHANNELS 3 Yrotation Xrotation Zrotation
										End Site
										{
											OFFSET 2.69412 -0.72189 0.00000
										}
									}
								}
							}
						}
					}
				}
			}
		}
	}
	JOINT RightUpLeg
	{
		OFFSET -3.80068 0.00000 -1.11031
		CHANNELS 3 Xrotation Yrotation Zrotation
		JOINT RightLeg
		{
			OFFSET 0.00001 0.00000 -17.00167
			CHANNELS 3 Xrotation Yrotation Zrotation
			JOINT RightFoot
			{
				OFFSET 0.00001 0.00000 -17.96841
				CHANNELS 3 Xrotation Yrotation Zrotation
				JOINT RightToeBase
				{
					OFFSET 0.00000 -5.07501 -1.84715
					CHANNELS 3 Xrotation Yrotation Zrotation
					End Site
					{
						OFFSET 0.00000 -3.07471 -0.00000
					}
				}
			}
		}
	}
	JOINT LeftUpLeg
	{
		OFFSET 3.80068 0.00000 -1.11031
		CHANNELS 3 Xrotation Yrotation Zrotation
		JOINT LeftLeg
		{
			OFFSET 0.00001 0.00000 -17.00167
			CHANNELS 3 Xrotation Yrotation Zrotation
			JOINT LeftFoot
			{
				OFFSET 0.00001 0.00000 -17.96841
				CHANNELS 3 Xrotation Yrotation Zrotation
				JOINT LeftToeBase
				{
					OFFSET 0.00000 -5.07501 -1.84715
					CHANNELS 3 Xrotation Yrotation Zrotation
					End Site
					{
						OFFSET 0.00000 -3.07471 -0.00000
					}
				}
			}
		}
	}
}
MOTION
Frames: 10
Frame Time: 0.008342
 8.1989 40.3074 38.1535 -2.5327 -1.6152 3.6907 1.1937 3.0769 0.5482 0.0874 0.6942 0.0901 3.9726 -1.9782 -0.1846 0.7554 -0.8964 0.9985 0.0408 -3.1552 1.0490 -0.0577 0.7527 3.6019 -8.0166 6.7138 -0.7074 -30.0297 -0.8239 -30.0743 0.0000 0.0000 34.3429 0.0656 10.4558 -2.6433 -0.0000 -0.0000 0.0000 -0.0000 -0.0000 0.0000 -9.0779 -5.6422 -2.7322 -17.2482 5.0275 24.6651 -0.0000 -0.0000 -27.7693 -15.1804 -14.9320 6.8248 -0.0000 0.0000 -0.0000 0.0000 0.0000 -0.0000 7.1968 3.8570 -25.6751 6.3272 0.0000 0.0000 -7.4728 -4.9055 -0.9446 0.2930 0.0000 0.0000 7.0990 -1.8308 18.1421 2.9002 0.0000 0.0000 -6.1028 23.8045 5.0953 7.7952 0.0000 0.0000
 8.1968 40.3075 38.1534 -2.5344 -1.6155 3.6940 1.1952 3.0753 0.5462 0.0875 0.6942 0.0896 3.9736 -1.9806 -0.1844 0.7557 -0.8957 0.9962 0.0388 -3.1563 1.0443 -0.0581 0.7716 3.5890 -8.0197 6.7143 -0.7011 -30.0148 -0.8412 -30.0613 0.0000 0.0000 34.3333 0.0654 10.4566 -2.6428 -0.0000 0.0000 0.0000 0.0000 -0.0000 0.0000 -9.0780 -5.6396 -2.7299 -17.2563 5.0311 24.6554 -0.0000 -0.0000 -27.7680 -15.1605 -14.9014 6.8239 0.0000 0.0000 -0.0000 -0.0000 -0.0000 0.0000 7.1964 3.8546 -25.6800 6.3327 0.0000 0.0000 -7.4764 -4.9004 -0.9439 0.2902 0.0000 0.0000 7.0992 -1.8334 18.1368 2.9003 0.0000 0.0000 -6.1088 23.8032 5.1054 7.8023 0.0000 0.0000
 8.1938 40.3075 38.1531 -2.5371 -1.6132 3.6971 1.1979 3.0713 0.5457 0.0851 0.6953 0.0895 3.9769 -1.9851 -0.1854 0.7564 -0.8959 0.9951 0.0338 -3.1565 1.0383 -0.0543 0.7945 3.5705 -8.0197 6.7170 -0.6971 -30.0002 -0.8662 -30.0435 0.0000 0.0000 34.3212 0.0701 10.4561 -2.6413 -0.0000 -0.0000 0.0000 0.0000 -0.0000 0.0000 -9.0755 -5.6336 -2.7255 -17.2649 5.0360 24.6370 -0.0000 -0.0000 -27.7628 -15.1375 -14.8722 6.8249 -0.0000 0.0000 -0.0000 0.0000 -0.0000 0.0000 7.1965 3.8477 -25.6793 6.3384 0.0000 0.0000 -7.4807 -4.8923 -0.9484 0.2869 0.0000 0.0000 7.1000 -1.8403 18.1369 2.9008 0.0000 0.0000 -6.1149 23.8042 5.1117 7.8118 0.0000 0.0000
 8.1903 40.3074 38.1528 -2.5387 -1.6114 3.7010 1.1976 3.0675 0.5444 0.0835 0.6950 0.0892 3.9812 -1.9884 -0.1870 0.7576 -0.8967 0.9950 0.0254 -3.1569 1.0315 -0.0450 0.8219 3.5480 -8.0196 6.7194 -0.6910 -29.9820 -0.8947 -30.0232 0.0000 0.0000 34.3058 0.0765 10.4509 -2.6356 0.0000 -0.0000 0.0000 0.0000 0.0000 0.0000 -9.0758 -5.6236 -2.7205 -17.2673 5.0396 24.6137 -0.0000 -0.0000 -27.7570 -15.1115 -14.8424 6.8329 -0.0000 0.0000 0.0000 -0.0000 0.0000 0.0000 7.1954 3.8408 -25.6807 6.3452 0.0000 0.0000 -7.4868 -4.8825 -0.9516 0.2832 0.0000 0.0000 7.1004 -1.8470 18.1365 2.8994 0.0000 0.0000 -6.1207 23.8054 5.1190 7.8234 0.0000 0.0000
 8.1861 40.3071 38.1524 -2.5397 -1.6091 3.7054 1.1956 3.0633 0.5430 0.0804 0.6944 0.0888 3.9880 -1.9923 -0.1882 0.7593 -0.8977 0.9950 0.0137 -3.1577 1.0242 -0.0303 0.8527 3.5221 -8.0184 6.7210 -0.6847 -29.9621 -0.9264 -29.9999 0.0000 0.0000 34.2882 0.0857 10.4413 -2.6290 0.0000 -0.0000 0.0000 -0.0000 0.0000 0.0000 -9.0738 -5.6106 -2.7135 -17.2679 5.0440 24.5836 -0.0000 -0.0000 -27.7484 -15.0841 -14.8168 6.8422 0.0000 0.0000 0.0000 -0.0000 0.0000 0.0000 7.1937 3.8323 -25.6827 6.3522 0.0000 0.0000 -7.4940 -4.8712 -0.9547 0.2789 0.0000 0.0000 7.1009 -1.8551 18.1374 2.8962 0.0000 0.0000 -6.1256 23.8080 5.1255 7.8367 0.0000 0.0000
 8.1811 40.3066 38.1519 -2.5397 -1.6040 3.7096 1.1908 3.0567 0.5423 0.0761 0.6936 0.0883 3.9981 -1.9971 -0.1884 0.7611 -0.8989 0.9959 -0.0017 -3.1588 1.0156 -0.0105 0.8860 3.4938 -8.0170 6.7203 -0.6790 -29.9400 -0.9581 -29.9740 0.0000 0.0000 34.2687 0.0944 10.4249 -2.6187 -0.0000 0.0000 -0.0000 -0.0000 -0.0000 0.0000 -9.0720 -5.5951 -2.7066 -17.2633 5.0496 24.5481 -0.0000 -0.0000 -27.7382 -15.0575 -14.7981 6.8558 0.0000 -0.0000 -0.0000 -0.0000 0.0000 0.0000 7.1924 3.8190 -25.6823 6.3563 0.0000 0.0000 -7.5003 -4.8584 -0.9602 0.2744 0.0000 0.0000 7.1009 -1.8672 18.1427 2.8923 0.0000 0.0000 -6.1295 23.8131 5.1283 7.8503 0.0000 0.0000
 8.1757 40.3060 38.1514 -2.5391 -1.5993 3.7138 1.1843 3.0509 0.5421 0.0707 0.6920 0.0879 4.0102 -2.0016 -0.1880 0.7635 -0.9004 0.9961 -0.0204 -3.1596 1.0082 0.0136 0.9207 3.4641 -8.0139 6.7202 -0.6736 -29.9197 -0.9924 -29.9479 0.0000 0.0000 34.2487 0.1043 10.4039 -2.6070 0.0000 0.0000 0.0000 0.0000 -0.0000 0.0000 -9.0701 -5.5775 -2.6970 -17.2534 5.0565 24.5068 -0.0000 -0.0000 -27.7270 -15.0320 -14.7851 6.8721 0.0000 -0.0000 -0.0000 0.0000 -0.0000 0.0000 7.1906 3.8060 -25.6864 6.3610 0.0000 0.0000 -7.5076 -4.8457 -0.9615 0.2695 0.0000 0.0000 7.1019 -1.8789 18.1501 2.8852 0.0000 0.0000 -6.1304 23.8191 5.1291 7.8635 0.0000 0.0000
 8.1700 40.3052 38.1508 -2.5381 -1.5955 3.7178 1.1775 3.0459 0.5416 0.0631 0.6898 0.0882 4.0241 -2.0063 -0.1866 0.7666 -0.9023 0.9954 -0.0420 -3.1595 1.0030 0.0413 0.9549 3.4338 -8.0081 6.7227 -0.6684 -29.9047 -1.0300 -29.9247 0.0000 0.0000 34.2298 0.1148 10.3789 -2.5932 -0.0000 0.0000 -0.0000 -0.0000 -0.0000 0.0000 -9.0671 -5.5576 -2.6832 -17.2392 5.0648 24.4590 -0.0000 -0.0000 -27.7151 -15.0090 -14.7775 6.8913 0.0000 0.0000 -0.0000 0.0000 0.0000 -0.0000 7.1887 3.7939 -25.6965 6.3660 0.0000 0.0000 -7.5154 -4.8342 -0.9575 0.2644 0.0000 0.0000 7.1041 -1.8898 18.1587 2.8752 0.0000 0.0000 -6.1284 23.8262 5.1282 7.8748 0.0000 0.0000
 8.1640 40.3041 38.1502 -2.5364 -1.5901 3.7219 1.1668 3.0386 0.5412 0.0565 0.6877 0.0870 4.0411 -2.0094 -0.1829 0.7692 -0.9041 0.9966 -0.0652 -3.1608 0.9965 0.0698 0.9893 3.4053 -8.0028 6.7183 -0.6649 -29.8869 -1.0605 -29.8994 0.0000 0.0000 34.2096 0.1207 10.3492 -2.5781 0.0000 -0.0000 -0.0000 0.0000 -0.0000 -0.0000 -9.0653 -5.5387 -2.6740 -17.2198 5.0743 24.4149 -0.0000 -0.0000 -27.7064 -14.9898 -14.7741 6.9104 0.0000 -0.0000 0.0000 -0.0000 -0.0000 0.0000 7.1880 3.7792 -25.7105 6.3677 0.0000 0.0000 -7.5210 -4.8242 -0.9504 0.2589 0.0000 0.0000 7.1066 -1.9028 18.1715 2.8638 0.0000 0.0000 -6.1232 23.8347 5.1224 7.8834 0.0000 0.0000
 8.1578 40.3030 38.1497 -2.5344 -1.5850 3.7249 1.1563 3.0313 0.5426 0.0491 0.6845 0.0871 4.0572 -2.0118 -0.1783 0.7729 -0.9052 0.9972 -0.0894 -3.1610 0.9911 0.0989 1.0213 3.3782 -7.9986 6.7157 -0.6624 -29.8718 -1.0911 -29.8809 0.0000 0.0000 34.1931 0.1254 10.3155 -2.5634 -0.0000 -0.0000 -0.0000 -0.0000 0.0000 0.0000 -9.0620 -5.5191 -2.6640 -17.1971 5.0851 24.3680 -0.0000 -0.0000 -27.6981 -14.9760 -14.7740 6.9284 0.0000 0.0000 -0.0000 0.0000 0.0000 0.0000 7.1876 3.7652 -25.7322 6.3684 0.0000 0.0000 -7.5252 -4.8169 -0.9355 0.2526 0.0000 0.0000 7.1101 -1.9153 18.1843 2.8509 0.0000 0.0000 -6.1162 23.8434 5.1169 7.8886 0.0000 0.0000
